<?xml version="1.0" encoding="utf-8"?>
<!-- Generator: Adobe Illustrator 27.5.0, SVG Export Plug-In . SVG Version: 6.00 Build 0)  -->
<svg version="1.1" xmlns="http://www.w3.org/2000/svg" xmlns:xlink="http://www.w3.org/1999/xlink" x="0px" y="0px"
	 viewBox="0 0 841.89 566.929" style="enable-background:new 0 0 841.89 566.929;" xml:space="preserve">
<g id="BG">
	<rect y="0" style="fill:#FFFFFF;" width="841.89" height="566.929"/>
</g>
<g id="graphics">
	<g>
		<g>
			<path style="fill:#6C6D6D;" d="M306.784,413.34v20.815h-9.423v-18.044c0-4.25-2.463-6.774-6.405-6.774
				c-4.557,0.061-7.329,3.633-7.329,8.436v16.382h-9.422v-18.044c0-4.25-2.463-6.774-6.343-6.774
				c-4.619,0.061-7.39,3.633-7.39,8.436v16.382h-9.484v-33.133h9.484v5.728c2.34-4.064,6.22-6.035,11.208-6.097
				c5.604,0,9.607,2.833,11.208,7.637c2.155-5.111,6.343-7.575,11.947-7.637C302.165,400.653,306.784,405.58,306.784,413.34z"/>
			<path style="fill:#6C6D6D;" d="M347.668,417.589c0,10.1-7.144,16.936-17.736,16.936c-10.654,0-17.798-6.836-17.798-16.936
				c0-10.161,7.144-16.874,17.798-16.874C340.524,400.715,347.668,407.428,347.668,417.589z M321.68,417.712
				c0,5.42,3.326,9.115,8.252,9.115c4.865,0,8.252-3.695,8.252-9.115c0-5.419-3.387-9.114-8.252-9.114
				C325.005,408.598,321.68,412.293,321.68,417.712z"/>
			<path style="fill:#6C6D6D;" d="M387.016,413.34v20.815h-9.484v-18.044c0-4.188-2.463-6.774-6.528-6.774
				c-4.742,0.061-7.575,3.633-7.575,8.498v16.32h-9.484v-33.133h9.484v5.789c2.34-4.126,6.281-6.097,11.455-6.158
				C382.274,400.653,387.016,405.58,387.016,413.34z"/>
			<path style="fill:#6C6D6D;" d="M427.904,417.589c0,10.1-7.144,16.936-17.736,16.936c-10.654,0-17.798-6.836-17.798-16.936
				c0-10.161,7.144-16.874,17.798-16.874C420.761,400.715,427.904,407.428,427.904,417.589z M401.915,417.712
				c0,5.42,3.326,9.115,8.253,9.115c4.865,0,8.252-3.695,8.252-9.115c0-5.419-3.387-9.114-8.252-9.114
				C405.241,408.598,401.915,412.293,401.915,417.712z"/>
			<path style="fill:#6C6D6D;" d="M465.22,431.076c0,9.422-7.082,15.396-17.675,15.396c-5.604,0-10.593-1.785-14.41-4.372
				l3.51-6.651c3.018,2.156,6.528,3.326,10.285,3.326c5.419,0,8.868-2.895,8.868-7.391v-3.757c-2.218,3.079-5.604,4.804-9.978,4.804
				c-8.56,0-14.472-6.404-14.472-16.012c0-9.361,5.789-15.704,14.226-15.704c4.496-0.061,7.944,1.725,10.224,4.804v-4.496h9.422
				V431.076z M455.798,416.665c0-5.111-3.142-8.621-7.76-8.621c-4.619,0-7.76,3.571-7.821,8.621c0.061,5.05,3.141,8.56,7.821,8.56
				C452.656,425.226,455.798,421.715,455.798,416.665z"/>
			<path style="fill:#6C6D6D;" d="M483.382,406.996c2.279-4.064,6.035-6.281,10.962-6.343v8.93
				c-6.775-0.616-10.962,3.018-10.962,8.622v15.95h-9.483v-33.133h9.483V406.996z"/>
			<path style="fill:#6C6D6D;" d="M517.62,430.275c-2.217,2.772-5.789,4.311-10.407,4.311c-7.083,0-11.394-4.311-11.394-10.346
				c0-6.22,4.496-9.915,12.625-9.977h9.114v-0.616c0-3.51-2.34-5.542-6.897-5.542c-2.956,0-6.404,0.985-9.854,2.894l-2.956-6.527
				c4.927-2.464,9.176-3.818,14.965-3.818c8.868,0,13.979,4.434,14.042,11.886l0.061,21.616h-9.3V430.275z M517.559,422.823v-2.955
				h-7.452c-3.633,0-5.419,1.108-5.419,3.756c0,2.525,1.971,4.188,5.173,4.188C513.863,427.813,517.005,425.656,517.559,422.823z"/>
			<path style="fill:#6C6D6D;" d="M590.901,413.34v20.815h-9.422v-18.044c0-4.25-2.464-6.774-6.405-6.774
				c-4.557,0.061-7.328,3.633-7.328,8.436v16.382h-9.423v-18.044c0-4.25-2.463-6.774-6.343-6.774
				c-4.619,0.061-7.391,3.633-7.391,8.436v16.382h-9.483v-33.133h9.483v5.728c2.341-4.064,6.221-6.035,11.209-6.097
				c5.604,0,9.607,2.833,11.208,7.637c2.155-5.111,6.343-7.575,11.947-7.637C586.283,400.653,590.901,405.58,590.901,413.34z"/>
		</g>
	</g>
	<g>
		<g>
			<path style="fill:#6C6D6D;" d="M316.326,459.068h1.36l-5.267,7.293l5.643,7.784h-1.389l-5.035-6.858l-5.065,6.858h-1.39
				l5.701-7.784l-5.267-7.293h1.389l4.659,6.396L316.326,459.068z"/>
			<path style="fill:#6C6D6D;" d="M334.586,466.593c0,4.457-3.126,7.582-7.437,7.582c-4.283,0-7.438-3.125-7.438-7.582
				c0-4.399,3.154-7.554,7.438-7.554C331.46,459.039,334.586,462.193,334.586,466.593z M320.897,466.622
				c0,3.79,2.634,6.424,6.251,6.424c3.646,0,6.251-2.634,6.251-6.424c0-3.792-2.604-6.425-6.251-6.425
				C323.531,460.197,320.897,462.83,320.897,466.622z"/>
			<path style="fill:#6C6D6D;" d="M347.548,474.146v-21.474h1.215v21.474H347.548z"/>
			<path style="fill:#6C6D6D;" d="M367.66,466.94h-13.168c0.174,3.676,2.721,6.136,6.223,6.136c2.055,0,3.877-0.753,5.093-2.084
				l0.694,0.781c-1.389,1.505-3.443,2.402-5.846,2.402c-4.254,0-7.351-3.125-7.351-7.553c0-4.429,3.097-7.583,7.351-7.583
				C365.084,459.039,367.747,462.281,367.66,466.94z M366.56,465.869c-0.231-3.415-2.46-5.729-5.904-5.729
				c-3.386,0-5.846,2.314-6.135,5.729H366.56z"/>
			<path style="fill:#6C6D6D;" d="M379.06,473.104c-0.955,0.665-2.026,1.07-3.155,1.07c-2.142,0.029-3.414-1.36-3.414-4.196v-9.492
				h-2.2v-1.042h2.2v-3.733h1.157v3.733h5.122v1.042h-5.122v9.347c0,2.143,0.839,3.185,2.401,3.155c0.869,0,1.766-0.318,2.548-0.868
				L379.06,473.104z"/>
			<path style="fill:#6C6D6D;" d="M389.824,473.104c-0.955,0.665-2.026,1.07-3.154,1.07c-2.142,0.029-3.415-1.36-3.415-4.196v-9.492
				h-2.199v-1.042h2.199v-3.733h1.157v3.733h5.122v1.042h-5.122v9.347c0,2.143,0.84,3.185,2.402,3.155
				c0.868,0,1.766-0.318,2.547-0.868L389.824,473.104z"/>
			<path style="fill:#6C6D6D;" d="M405.972,466.94h-13.167c0.173,3.676,2.72,6.136,6.222,6.136c2.055,0,3.878-0.753,5.094-2.084
				l0.694,0.781c-1.39,1.505-3.444,2.402-5.846,2.402c-4.255,0-7.351-3.125-7.351-7.553c0-4.429,3.096-7.583,7.351-7.583
				C403.396,459.039,406.059,462.281,405.972,466.94z M404.872,465.869c-0.232-3.415-2.46-5.729-5.903-5.729
				c-3.386,0-5.846,2.314-6.136,5.729H404.872z"/>
			<path style="fill:#6C6D6D;" d="M411.497,462.858c0.955-2.43,2.923-3.762,5.614-3.819v1.244c-3.328,0-5.354,2.2-5.614,5.702v8.16
				h-1.215v-15.077h1.215V462.858z"/>
			<path style="fill:#6C6D6D;" d="M428.281,460.226l-0.521,0.984c-1.042-0.666-2.373-1.07-3.819-1.07
				c-2.112,0-3.763,0.81-3.763,2.603c0,4.052,8.798,2.055,8.798,7.381c0,2.807-2.518,4.051-5.238,4.051
				c-2.112,0-4.138-0.753-5.527-2.083l0.55-0.927c1.303,1.215,3.126,1.91,5.035,1.91c2.112,0,3.936-0.839,4.022-2.749
				c0.116-4.255-8.797-2.315-8.797-7.496c0-2.633,2.286-3.791,4.948-3.791C425.647,459.039,427.095,459.502,428.281,460.226z"/>
			<path style="fill:#6C6D6D;" d="M449.347,460.226l-0.52,0.984c-1.042-0.666-2.374-1.07-3.82-1.07c-2.112,0-3.762,0.81-3.762,2.603
				c0,4.052,8.798,2.055,8.798,7.381c0,2.807-2.519,4.051-5.238,4.051c-2.113,0-4.139-0.753-5.527-2.083l0.549-0.927
				c1.303,1.215,3.126,1.91,5.036,1.91c2.112,0,3.936-0.839,4.022-2.749c0.116-4.255-8.798-2.315-8.798-7.496
				c0-2.633,2.286-3.791,4.948-3.791C446.714,459.039,448.16,459.502,449.347,460.226z"/>
			<path style="fill:#6C6D6D;" d="M457.796,476.316c-0.927,2.258-2.402,3.473-4.167,3.473c-1.101,0-2.084-0.289-2.866-0.868
				l0.521-1.042c0.665,0.463,1.447,0.695,2.286,0.695c1.36,0,2.518-0.956,3.241-2.721l0.694-1.708l-6.222-15.077h1.273l5.557,13.659
				l5.412-13.659h1.273L457.796,476.316z"/>
			<path style="fill:#6C6D6D;" d="M492.754,464.942v9.203h-1.186v-8.971c0-3.097-1.795-4.92-4.834-4.92
				c-3.617,0.086-5.73,2.575-5.73,6.511v7.38h-1.186v-8.971c0-3.097-1.823-4.92-4.833-4.92c-3.617,0.086-5.76,2.575-5.76,6.511v7.38
				h-1.186v-15.077h1.186v3.964c0.984-2.575,3.098-3.936,6.078-3.993c3.038,0,5.035,1.62,5.557,4.37
				c0.926-2.808,3.067-4.313,6.164-4.37C490.641,459.039,492.754,461.268,492.754,464.942z"/>
			<path style="fill:#6C6D6D;" d="M513.297,466.622c0,4.398-3.01,7.553-7.264,7.553c-2.951,0-5.267-1.534-6.395-3.966v3.936h-1.215
				v-21.474h1.215v10.36c1.129-2.46,3.444-3.993,6.395-3.993C510.259,459.039,513.297,462.193,513.297,466.622z M512.11,466.622
				c0-3.734-2.604-6.454-6.251-6.454c-3.617,0-6.222,2.72-6.222,6.454c0,3.732,2.604,6.424,6.222,6.424
				C509.507,473.046,512.11,470.354,512.11,466.622z"/>
			<path style="fill:#6C6D6D;" d="M530.948,466.593c0,4.457-3.125,7.582-7.438,7.582c-4.283,0-7.438-3.125-7.438-7.582
				c0-4.399,3.154-7.554,7.438-7.554C527.823,459.039,530.948,462.193,530.948,466.593z M517.26,466.622
				c0,3.79,2.634,6.424,6.251,6.424c3.646,0,6.251-2.634,6.251-6.424c0-3.792-2.604-6.425-6.251-6.425
				C519.894,460.197,517.26,462.83,517.26,466.622z"/>
			<path style="fill:#6C6D6D;" d="M535.49,474.146v-21.474h1.215v21.474H535.49z"/>
		</g>
	</g>
	<g>
		<linearGradient id="SVGID_1_" gradientUnits="userSpaceOnUse" x1="543.8056" y1="136.9315" x2="291.5199" y2="389.2172">
			<stop  offset="0" style="stop-color:#00E5FF"/>
			<stop  offset="1" style="stop-color:#0087FF"/>
		</linearGradient>
		<path style="fill:url(#SVGID_1_);" d="M525.863,307.678l-9.602-9.603c9.805-24.509,9.806-52.058,0-76.567l9.602-9.601
			c15.725-15.725,15.725-41.31,0-57.034c-15.724-15.724-41.31-15.724-57.033,0l-9.602,9.601c-24.509-9.805-52.058-9.805-76.568,0
			l-9.601-9.601c-15.725-15.724-41.309-15.724-57.033,0c-15.725,15.724-15.725,41.309,0,57.034l9.601,9.6
			c-9.806,24.511-9.805,52.059,0,76.568l-9.602,9.603c-15.724,15.725-15.724,41.31,0,57.033c15.724,15.724,41.309,15.724,57.034,0
			l9.602-9.602c24.509,9.804,52.058,9.804,76.567-0.001l9.603,9.603c15.724,15.724,41.308,15.724,57.032,0
			C541.588,348.986,541.588,323.402,525.863,307.678z M491.862,273.676l-13.885-13.884l13.885-13.884
			C493.642,255.07,493.642,264.513,491.862,273.676z M472.059,310.905c-2.373,2.373-4.872,4.541-7.476,6.515l-22.116-22.116
			l13.989-13.99l22.116,22.117C476.6,306.032,474.432,308.533,472.059,310.905z M406.956,259.792l13.989-13.989l13.99,13.989
			l-13.989,13.989L406.956,259.792z M399.424,295.304l-22.118,22.116c-2.603-1.973-5.103-4.142-7.476-6.515
			c-2.373-2.372-4.541-4.873-6.514-7.475l22.117-22.117L399.424,295.304z M369.831,208.677c2.372-2.373,4.873-4.541,7.476-6.514
			l22.117,22.118l-13.989,13.989l-22.117-22.118C365.29,213.55,367.457,211.05,369.831,208.677z M442.466,224.281l22.117-22.118
			c2.603,1.974,5.102,4.142,7.476,6.514c2.373,2.373,4.542,4.873,6.515,7.476l-22.117,22.117L442.466,224.281z M490.352,176.395
			c3.857-3.857,10.134-3.857,13.99,0c3.857,3.857,3.857,10.132,0,13.99l-4.105,4.104c-2.081-2.523-4.297-4.974-6.656-7.333
			c-2.36-2.359-4.81-4.575-7.333-6.656L490.352,176.395z M434.829,188.875l-13.884,13.884l-13.884-13.885
			C416.223,187.094,425.666,187.094,434.829,188.875z M337.548,190.384c-3.857-3.856-3.856-10.132,0-13.989
			c3.857-3.857,10.132-3.857,13.989,0l4.104,4.105c-2.523,2.08-4.974,4.296-7.333,6.656c-2.36,2.36-4.575,4.81-6.657,7.333
			L337.548,190.384z M350.028,245.907l13.884,13.885l-13.884,13.883C348.248,264.513,348.248,255.07,350.028,245.907z
			 M351.538,343.189c-3.856,3.857-10.133,3.857-13.99,0c-3.857-3.856-3.857-10.133,0-13.989l4.104-4.105
			c2.082,2.523,4.296,4.973,6.657,7.333c2.359,2.359,4.81,4.575,7.333,6.656L351.538,343.189z M407.061,330.709l13.884-13.884
			l13.884,13.884C425.667,332.488,416.224,332.488,407.061,330.709z M490.352,343.189l-4.104-4.104
			c2.523-2.081,4.973-4.297,7.333-6.656c2.359-2.36,4.574-4.81,6.655-7.333l4.105,4.105c3.856,3.856,3.856,10.133,0,13.989
			C500.485,347.045,494.209,347.045,490.352,343.189z"/>
		
			<linearGradient id="SVGID_00000027603095366945909390000001161359979893813922_" gradientUnits="userSpaceOnUse" x1="-186.2072" y1="1271.9828" x2="-186.2072" y2="1254.7347" gradientTransform="matrix(0.7071 0.7071 -0.7071 0.7071 1498.303 -518.7205)">
			<stop  offset="0" style="stop-color:#035C8F"/>
			<stop  offset="1" style="stop-color:#FFFFFF"/>
		</linearGradient>
		<polygon style="opacity:0.5;fill:url(#SVGID_00000027603095366945909390000001161359979893813922_);" points="490.174,247.597 
			477.977,259.792 456.456,238.27 468.652,226.075 		"/>
		
			<linearGradient id="SVGID_00000004539001595824876280000017523430444636944512_" gradientUnits="userSpaceOnUse" x1="-186.2077" y1="1767.6996" x2="-186.2077" y2="1750.4515" gradientTransform="matrix(0.7071 0.7071 0.7071 -0.7071 -672.5777 1652.1604)">
			<stop  offset="0" style="stop-color:#035C8F"/>
			<stop  offset="1" style="stop-color:#FFFFFF"/>
		</linearGradient>
		<polygon style="opacity:0.5;fill:url(#SVGID_00000004539001595824876280000017523430444636944512_);" points="422.738,271.988 
			434.935,259.792 456.456,281.314 444.26,293.509 		"/>
		
			<linearGradient id="SVGID_00000159445029160228696840000006015532953417187753_" gradientUnits="userSpaceOnUse" x1="1132.2894" y1="3126.6433" x2="1132.2894" y2="3109.3955" gradientTransform="matrix(-0.7071 0.7071 -0.7071 -0.7071 3443.1975 1716.2719)">
			<stop  offset="0" style="stop-color:#035C8F"/>
			<stop  offset="1" style="stop-color:#FFFFFF"/>
		</linearGradient>
		<polygon style="opacity:0.5;fill:url(#SVGID_00000159445029160228696840000006015532953417187753_);" points="433.141,329.021 
			420.945,316.825 442.467,295.304 454.663,307.499 		"/>
		
			<linearGradient id="SVGID_00000124146949280353144820000016642956087057437094_" gradientUnits="userSpaceOnUse" x1="1132.2891" y1="-86.9616" x2="1132.2891" y2="-104.2107" gradientTransform="matrix(-0.7071 0.7071 0.7071 0.7071 1272.3171 -454.6084)">
			<stop  offset="0" style="stop-color:#035C8F"/>
			<stop  offset="1" style="stop-color:#FFFFFF"/>
		</linearGradient>
		<polygon style="opacity:0.5;fill:url(#SVGID_00000124146949280353144820000016642956087057437094_);" points="408.749,261.586 
			420.945,273.781 399.424,295.304 387.227,283.107 		"/>
		
			<linearGradient id="SVGID_00000047778009770751981220000000732589449654643867_" gradientUnits="userSpaceOnUse" x1="2922.2854" y1="1723.4791" x2="2922.2854" y2="1706.2318" gradientTransform="matrix(-0.7071 -0.7071 0.7071 -0.7071 1222.3484 3555.5725)">
			<stop  offset="0" style="stop-color:#035C8F"/>
			<stop  offset="1" style="stop-color:#FFFFFF"/>
		</linearGradient>
		<polygon style="opacity:0.5;fill:url(#SVGID_00000047778009770751981220000000732589449654643867_);" points="351.716,271.987 
			363.912,259.792 385.434,281.314 373.238,293.509 		"/>
		
			<linearGradient id="SVGID_00000122698328634937655040000016689192340741828761_" gradientUnits="userSpaceOnUse" x1="2922.2842" y1="1316.203" x2="2922.2842" y2="1298.9546" gradientTransform="matrix(-0.7071 -0.7071 -0.7071 0.7071 3393.2288 1384.691)">
			<stop  offset="0" style="stop-color:#035C8F"/>
			<stop  offset="1" style="stop-color:#FFFFFF"/>
		</linearGradient>
		<polygon style="opacity:0.5;fill:url(#SVGID_00000122698328634937655040000016689192340741828761_);" points="419.152,247.596 
			406.956,259.792 385.434,238.27 397.63,226.074 		"/>
		
			<linearGradient id="SVGID_00000025431374907601172470000018415169340320442514_" gradientUnits="userSpaceOnUse" x1="1583.7848" y1="18.1524" x2="1583.7848" y2="0.9041" gradientTransform="matrix(0.7071 -0.7071 0.7071 0.7071 -722.5459 1320.5789)">
			<stop  offset="0" style="stop-color:#035C8F"/>
			<stop  offset="1" style="stop-color:#FFFFFF"/>
		</linearGradient>
		<polygon style="opacity:0.5;fill:url(#SVGID_00000025431374907601172470000018415169340320442514_);" points="408.749,190.563 
			420.945,202.759 399.423,224.281 387.227,212.085 		"/>
		
			<linearGradient id="SVGID_00000181072885203302525620000010006406940123054759_" gradientUnits="userSpaceOnUse" x1="1583.7849" y1="3021.5295" x2="1583.7849" y2="3004.2815" gradientTransform="matrix(0.7071 -0.7071 -0.7071 -0.7071 1448.3344 3491.4592)">
			<stop  offset="0" style="stop-color:#035C8F"/>
			<stop  offset="1" style="stop-color:#FFFFFF"/>
		</linearGradient>
		<polygon style="opacity:0.5;fill:url(#SVGID_00000181072885203302525620000010006406940123054759_);" points="433.141,257.998 
			420.945,245.803 442.466,224.281 454.662,236.477 		"/>
		
			<linearGradient id="SVGID_00000137118913012802283840000010173153248127087508_" gradientUnits="userSpaceOnUse" x1="2957.8159" y1="1399.4762" x2="2975.0642" y2="1399.4762" gradientTransform="matrix(-0.7071 -0.7071 -0.7071 0.7071 3445.553 1428.53)">
			<stop  offset="0" style="stop-color:#FFFFFF"/>
			<stop  offset="1" style="stop-color:#035C8F"/>
		</linearGradient>
		<path style="opacity:0.5;fill:url(#SVGID_00000137118913012802283840000010173153248127087508_);" d="M341.652,325.095
			l21.665-21.664c1.973,2.602,4.141,5.103,6.514,7.476c1.756,1.755,3.58,3.401,5.464,4.938l-21.596,21.598
			c-1.84-1.598-3.64-3.265-5.389-5.014C345.95,330.068,343.734,327.618,341.652,325.095z"/>
		
			<linearGradient id="SVGID_00000153692662213340482990000000017941643141993114_" gradientUnits="userSpaceOnUse" x1="-268.8944" y1="1381.3739" x2="-251.6472" y2="1381.3739" gradientTransform="matrix(0.7071 0.7071 -0.7071 0.7071 1498.303 -518.7205)">
			<stop  offset="0" style="stop-color:#FFFFFF"/>
			<stop  offset="1" style="stop-color:#035C8F"/>
		</linearGradient>
		<path style="opacity:0.5;fill:url(#SVGID_00000153692662213340482990000000017941643141993114_);" d="M350.028,273.675
			c-1.52-7.822-1.737-15.846-0.664-23.727l-29.256,29.256c1.225,6.418,3.066,12.738,5.52,18.871L350.028,273.675z"/>
		
			<linearGradient id="SVGID_00000047041346562440055150000005959407246304012965_" gradientUnits="userSpaceOnUse" x1="-186.2073" y1="1383.9183" x2="-186.2073" y2="1359.4877" gradientTransform="matrix(0.7071 0.7071 -0.7071 0.7071 1498.303 -518.7205)">
			<stop  offset="0" style="stop-color:#035C8F"/>
			<stop  offset="1" style="stop-color:#FFFFFF"/>
		</linearGradient>
		<path style="opacity:0.5;fill:url(#SVGID_00000047041346562440055150000005959407246304012965_);" d="M394.581,300.146
			l-17.275,17.275c8.97,6.802,19.174,11.234,29.755,13.289l9.042-9.042L394.581,300.146z"/>
		
			<linearGradient id="SVGID_00000106111361092044013370000008051237138160146601_" gradientUnits="userSpaceOnUse" x1="-191.1532" y1="1408.7172" x2="-191.1532" y2="1428.8823" gradientTransform="matrix(0.7071 0.7071 -0.7071 0.7071 1498.303 -518.7205)">
			<stop  offset="0" style="stop-color:#035C8F"/>
			<stop  offset="1" style="stop-color:#FFFFFF"/>
		</linearGradient>
		<path style="opacity:0.5;fill:url(#SVGID_00000106111361092044013370000008051237138160146601_);" d="M373.06,364.711l9.602-9.602
			l-0.002-0.001c-9.594-3.839-18.72-9.181-27.017-16.024l-4.105,4.104c-3.856,3.857-10.133,3.857-13.99,0l27.646,27.646
			C368,369.162,370.646,367.123,373.06,364.711z"/>
		
			<linearGradient id="SVGID_00000039098121935945275420000001723437740497695922_" gradientUnits="userSpaceOnUse" x1="-192.6729" y1="1689.0105" x2="-175.4253" y2="1689.0105" gradientTransform="matrix(0.7071 0.7071 0.7071 -0.7071 -580.6814 1523.4944)">
			<stop  offset="0" style="stop-color:#FFFFFF"/>
			<stop  offset="1" style="stop-color:#035C8F"/>
		</linearGradient>
		<path style="opacity:0.5;fill:url(#SVGID_00000039098121935945275420000001723437740497695922_);" d="M500.237,194.489
			l-21.664,21.665c-1.973-2.603-4.142-5.103-6.515-7.476c-1.755-1.755-3.579-3.401-5.463-4.938l21.597-21.596
			c1.84,1.596,3.64,3.264,5.389,5.012C495.94,189.515,498.156,191.965,500.237,194.489z"/>
		
			<linearGradient id="SVGID_00000006685793585937607540000011094366028168754305_" gradientUnits="userSpaceOnUse" x1="2881.5955" y1="1670.9072" x2="2898.843" y2="1670.9072" gradientTransform="matrix(-0.7071 -0.7071 0.7071 -0.7071 1366.5691 3470.7444)">
			<stop  offset="0" style="stop-color:#FFFFFF"/>
			<stop  offset="1" style="stop-color:#035C8F"/>
		</linearGradient>
		<path style="opacity:0.5;fill:url(#SVGID_00000006685793585937607540000011094366028168754305_);" d="M491.862,245.908
			c1.52,7.822,1.737,15.847,0.663,23.728l29.256-29.256c-1.225-6.418-3.066-12.739-5.52-18.872L491.862,245.908z"/>
		
			<linearGradient id="SVGID_00000160190671631003506820000011815131691744856229_" gradientUnits="userSpaceOnUse" x1="2964.2825" y1="1673.4515" x2="2964.2825" y2="1649.0209" gradientTransform="matrix(-0.7071 -0.7071 0.7071 -0.7071 1366.5691 3470.7444)">
			<stop  offset="0" style="stop-color:#035C8F"/>
			<stop  offset="1" style="stop-color:#FFFFFF"/>
		</linearGradient>
		<path style="opacity:0.5;fill:url(#SVGID_00000160190671631003506820000011815131691744856229_);" d="M447.309,219.439
			l17.274-17.275c-8.97-6.801-19.174-11.234-29.754-13.288l-9.042,9.042L447.309,219.439z"/>
		
			<linearGradient id="SVGID_00000066475441304843691030000002807971601724572577_" gradientUnits="userSpaceOnUse" x1="2959.3362" y1="1698.2507" x2="2959.3362" y2="1718.4158" gradientTransform="matrix(-0.7071 -0.7071 0.7071 -0.7071 1366.5691 3470.7444)">
			<stop  offset="0" style="stop-color:#035C8F"/>
			<stop  offset="1" style="stop-color:#FFFFFF"/>
		</linearGradient>
		<path style="opacity:0.5;fill:url(#SVGID_00000066475441304843691030000002807971601724572577_);" d="M468.831,154.873
			l-9.603,9.601l0.002,0.001c9.594,3.839,18.721,9.181,27.017,16.025l4.104-4.105c3.857-3.857,10.133-3.857,13.99,0l-27.646-27.646
			C473.89,150.421,471.243,152.46,468.831,154.873z"/>
		
			<linearGradient id="SVGID_00000123431189117352552830000011300190040937526956_" gradientUnits="userSpaceOnUse" x1="1608.3204" y1="3223.1377" x2="1625.5681" y2="3223.1377" gradientTransform="matrix(0.7071 -0.7071 -0.7071 -0.7071 1495.9467 3619.6819)">
			<stop  offset="0" style="stop-color:#FFFFFF"/>
			<stop  offset="1" style="stop-color:#035C8F"/>
		</linearGradient>
		<path style="opacity:0.5;fill:url(#SVGID_00000123431189117352552830000011300190040937526956_);" d="M355.643,180.5
			l21.664,21.663c-2.603,1.974-5.102,4.142-7.476,6.515c-1.756,1.756-3.401,3.58-4.938,5.464l-21.596-21.597
			c1.596-1.84,3.264-3.641,5.012-5.389C350.668,184.797,353.118,182.58,355.643,180.5z"/>
		
			<linearGradient id="SVGID_00000031188644268379323980000016845268820148658617_" gradientUnits="userSpaceOnUse" x1="1080.6018" y1="3205.0352" x2="1097.8505" y2="3205.0352" gradientTransform="matrix(-0.7071 0.7071 -0.7071 -0.7071 3443.1975 1672.4319)">
			<stop  offset="0" style="stop-color:#FFFFFF"/>
			<stop  offset="1" style="stop-color:#035C8F"/>
		</linearGradient>
		<path style="opacity:0.5;fill:url(#SVGID_00000031188644268379323980000016845268820148658617_);" d="M407.061,188.876
			c7.822-1.521,15.847-1.739,23.728-0.664l-29.256-29.257c-6.419,1.226-12.741,3.067-18.872,5.52L407.061,188.876z"/>
		
			<linearGradient id="SVGID_00000119099279074611677420000008432668825027439760_" gradientUnits="userSpaceOnUse" x1="1163.2891" y1="3207.5803" x2="1163.2891" y2="3183.1487" gradientTransform="matrix(-0.7071 0.7071 -0.7071 -0.7071 3443.1975 1672.4319)">
			<stop  offset="0" style="stop-color:#035C8F"/>
			<stop  offset="1" style="stop-color:#FFFFFF"/>
		</linearGradient>
		<path style="opacity:0.5;fill:url(#SVGID_00000119099279074611677420000008432668825027439760_);" d="M380.592,233.428
			l-17.275-17.276c-6.801,8.971-11.234,19.174-13.289,29.756l9.042,9.042L380.592,233.428z"/>
		
			<linearGradient id="SVGID_00000173872150378790500340000005080059077846602671_" gradientUnits="userSpaceOnUse" x1="1158.3433" y1="3232.3787" x2="1158.3433" y2="3252.5432" gradientTransform="matrix(-0.7071 0.7071 -0.7071 -0.7071 3443.1975 1672.4319)">
			<stop  offset="0" style="stop-color:#035C8F"/>
			<stop  offset="1" style="stop-color:#FFFFFF"/>
		</linearGradient>
		<path style="opacity:0.5;fill:url(#SVGID_00000173872150378790500340000005080059077846602671_);" d="M316.027,211.907
			l9.601,9.601v-0.003c3.839-9.593,9.181-18.719,16.025-27.017l-4.105-4.105c-3.856-3.856-3.856-10.132,0-13.989l-27.646,27.647
			C311.575,206.848,313.614,209.493,316.027,211.907z"/>
		
			<linearGradient id="SVGID_00000172432179885025407830000012853119822425866131_" gradientUnits="userSpaceOnUse" x1="1156.8236" y1="-134.6512" x2="1174.0713" y2="-134.6512" gradientTransform="matrix(-0.7071 0.7071 0.7071 0.7071 1400.9821 -406.5525)">
			<stop  offset="0" style="stop-color:#FFFFFF"/>
			<stop  offset="1" style="stop-color:#035C8F"/>
		</linearGradient>
		<path style="opacity:0.5;fill:url(#SVGID_00000172432179885025407830000012853119822425866131_);" d="M486.248,339.084
			l-21.665-21.664c2.603-1.973,5.103-4.141,7.477-6.514c1.756-1.756,3.401-3.58,4.938-5.464l21.597,21.597
			c-1.596,1.84-3.264,3.641-5.013,5.389C491.222,334.787,488.771,337.003,486.248,339.084z"/>
		
			<linearGradient id="SVGID_00000160893942667618850310000013624273943873899709_" gradientUnits="userSpaceOnUse" x1="1532.0975" y1="-152.7533" x2="1549.3466" y2="-152.7533" gradientTransform="matrix(0.7071 -0.7071 0.7071 0.7071 -546.2678 1540.698)">
			<stop  offset="0" style="stop-color:#FFFFFF"/>
			<stop  offset="1" style="stop-color:#035C8F"/>
		</linearGradient>
		<path style="opacity:0.5;fill:url(#SVGID_00000160893942667618850310000013624273943873899709_);" d="M434.829,330.709
			c-7.822,1.52-15.847,1.737-23.728,0.664l29.255,29.257c6.418-1.228,12.74-3.067,18.873-5.521L434.829,330.709z"/>
		
			<linearGradient id="SVGID_00000015330220156654070070000000001547165014541956_" gradientUnits="userSpaceOnUse" x1="1614.7856" y1="-150.2102" x2="1614.7856" y2="-174.6402" gradientTransform="matrix(0.7071 -0.7071 0.7071 0.7071 -546.2678 1540.698)">
			<stop  offset="0" style="stop-color:#035C8F"/>
			<stop  offset="1" style="stop-color:#FFFFFF"/>
		</linearGradient>
		<path style="opacity:0.5;fill:url(#SVGID_00000015330220156654070070000000001547165014541956_);" d="M461.299,286.155
			l17.273,17.275c6.803-8.969,11.234-19.175,13.29-29.755l-9.042-9.042L461.299,286.155z"/>
		
			<linearGradient id="SVGID_00000073684654806839619680000015786212502340474040_" gradientUnits="userSpaceOnUse" x1="1609.8403" y1="-125.4107" x2="1609.8403" y2="-105.2455" gradientTransform="matrix(0.7071 -0.7071 0.7071 0.7071 -546.2678 1540.698)">
			<stop  offset="0" style="stop-color:#035C8F"/>
			<stop  offset="1" style="stop-color:#FFFFFF"/>
		</linearGradient>
		<path style="opacity:0.5;fill:url(#SVGID_00000073684654806839619680000015786212502340474040_);" d="M525.864,307.678
			l-9.603-9.602v0.001c-3.839,9.595-9.182,18.721-16.024,27.018l4.105,4.105c3.856,3.857,3.856,10.133,0,13.989l27.646-27.647
			C530.315,312.736,528.277,310.091,525.864,307.678z"/>
	</g>
</g>
</svg>
