<?xml version="1.0" encoding="utf-8"?>
<!-- Generator: Adobe Illustrator 27.5.0, SVG Export Plug-In . SVG Version: 6.00 Build 0)  -->
<svg version="1.1" xmlns="http://www.w3.org/2000/svg" xmlns:xlink="http://www.w3.org/1999/xlink" x="0px" y="0px"
	 viewBox="0 0 499.999 500" style="enable-background:new 0 0 499.999 500;" xml:space="preserve">
<g id="BACKGROUND">
</g>
<g id="OBJECTS">
	<text transform="matrix(1 0 0 1 150.1177 355.2398)" style="fill:#DE5EBC; font-family:'Gilroy-ExtraBold'; font-size:25.7127px;">company name</text>
	<text transform="matrix(1 0 0 1 187.0357 377.2954)" style="fill:#7B62DA; font-family:'Gilroy-Light'; font-size:23.6909px;">your slogan</text>
	<g>
		<radialGradient id="SVGID_1_" cx="166.3328" cy="128.6671" r="318.3891" gradientUnits="userSpaceOnUse">
			<stop  offset="0.0251" style="stop-color:#DE5EBC"/>
			<stop  offset="0.5071" style="stop-color:#7B62DA"/>
			<stop  offset="1" style="stop-color:#3C5FFA"/>
		</radialGradient>
		<path style="fill:url(#SVGID_1_);" d="M262.68,177.886c-32.294,0-18-62.333-76.333-62.667c-58.333-0.333-62,68.667-32.667,95
			c22.144,19.879,70.637,20.303,82.667,32.333c10.333,10.333,7.333,23.667,9,40.667s9.667,40.667,34,36.667
			c24.333-4,28.667-26,23.333-41.333c-5.333-15.333-9.267-28.773-5-37c12.333-23.777,29.376-13.402,41.667-26
			c13.333-13.667,17.198-33.579,5.333-52c-12.667-19.667-41.667-19.333-54.667-6C277.013,170.886,276.013,177.886,262.68,177.886z"
			/>
		
			<radialGradient id="SVGID_00000117635430434949106810000005229793619980598458_" cx="287.9995" cy="287.0004" r="333.0165" gradientUnits="userSpaceOnUse">
			<stop  offset="0.0251" style="stop-color:#DE5EBC"/>
			<stop  offset="0.5071" style="stop-color:#7B62DA"/>
			<stop  offset="1" style="stop-color:#3C5FFA"/>
		</radialGradient>
		<path style="fill:url(#SVGID_00000117635430434949106810000005229793619980598458_);" d="M325.916,222.697
			c-9.56,2.39-19.79,3.16-27.96,18.91c-3.61,6.95-1.35,17.64,2.66,30.05v0.01c1.26,13.9-0.49,30.37-21.99,33.27
			c-17.03,2.3-26.82-6.54-32.61-18.42c-0.16-1.11-0.29-2.19-0.39-3.25c-1.67-17,1.33-30.33-9-40.66c-5.44-5.43-18.3-8.5-32.82-12.06
			c0-0.01-0.01-0.01-0.01-0.01c-24.72-14.42-47.99-41.85-39.17-74.27c7.31-26.88,28.13-37.25,43.35-37.24
			c33.79,13.52,27.42,58.91,54.98,58.91c12.99,0,14.27-6.65,26.36-19.32c15.73-6.98,35.81-8.78,45.31,16.99
			C344.486,202.348,335.286,215.598,325.916,222.697z"/>
		<g>
			<g>
				
					<linearGradient id="SVGID_00000091733069302858997950000010474871639749557941_" gradientUnits="userSpaceOnUse" x1="162.222" y1="174.7951" x2="208.4622" y2="174.7951">
					<stop  offset="0" style="stop-color:#B7ACE2"/>
					<stop  offset="1" style="stop-color:#B7ACE2;stop-opacity:0"/>
				</linearGradient>
				<path style="fill:url(#SVGID_00000091733069302858997950000010474871639749557941_);" d="M207.979,119.031
					c-0.971,0.019-1.941,0.071-2.907,0.157l-0.003,0l-0.02,0h0.003l-1.476,0.179l-0.003,0h-0.004l-0.02,0l0.007-0.001
					c-1.018,0.144-2.026,0.319-3.028,0.538l-0.008,0.002l-0.011,0l-0.02,0l0.02-0.002l-1.531,0.369l-0.014,0.003l-0.015,0l-0.01,0
					l0.028-0.003l-1.55,0.439l-0.018,0.005l-0.02,0l-0.01,0l0.038-0.005c-0.882,0.289-1.768,0.563-2.632,0.9
					c-0.866,0.329-1.733,0.668-2.57,1.068c-1.703,0.754-3.34,1.628-4.916,2.576l-0.065,0.039l-0.075,0l-0.01,0l0.133-0.036
					l-1.597,1.024l-1.56,1.092c-1.038,0.732-2.015,1.534-2.975,2.362c-0.924,0.867-1.865,1.717-2.775,2.597
					c-0.847,0.941-1.748,1.843-2.547,2.816l-0.12,0.095c0.026-0.008,0.05-0.022,0.068-0.04l0.021-0.023
					c-0.667,0.802-1.289,1.643-1.923,2.472c-0.612,0.85-1.2,1.712-1.753,2.581l-0.007,0.01l-0.01,0.015
					c-0.736,1.12-1.419,2.304-2.052,3.506c-0.658,1.197-1.246,2.412-1.792,3.662c-0.561,1.237-1.062,2.514-1.536,3.782
					c-0.46,1.276-0.899,2.57-1.271,3.872l-0.016,0.048c-0.006,0.027-0.015,0.053-0.026,0.079l-0.012,0.049
					c-0.425,1.434-0.782,2.917-1.062,4.396c-0.143,0.741-0.309,1.478-0.432,2.222l-0.295,2.246
					c-0.117,0.747-0.179,1.499-0.215,2.254l-0.143,2.26c-0.004,0.755-0.039,1.507-0.015,2.264c0.006,0.378,0.004,0.755,0.024,1.135
					l0.023,0.569l0.012,0.284c-0.004,0.072,0.025,0.264-0.008,0.144l0.025,0.143l0.066,1.063l0.002,0.028v0.013l0,0.05l-0.002-0.04
					c0.052,0.602,0.105,1.206,0.17,1.766l0.006,0.043c0.123,1.065,0.272,2.178,0.466,3.249c0.184,1.08,0.409,2.152,0.672,3.228
					c0.295,1.06,0.545,2.135,0.875,3.182c0.322,1.051,0.675,2.103,1.046,3.13l0.03,0.159c0.021-0.122-0.13-0.333-0.128-0.309
					c0.004-0.019,0.16,0.199,0.138,0.329l-0.03-0.159c1.648,4.435,3.804,8.645,6.393,12.611c2.554,3.988,5.485,7.704,8.705,11.183
					c1.64,1.718,3.273,3.438,5.055,4.999c1.8,1.542,3.527,3.175,5.361,4.678l2.826,2.164c0.939,0.726,1.887,1.442,2.865,2.117
					l2.971,1.966c0.986,0.664,1.986,1.305,3.008,1.913l0,0l0.03,0.02l-0.03-0.02l0,0c-1.037-0.582-2.054-1.198-3.057-1.836
					l-3.025-1.892c-0.997-0.65-1.964-1.342-2.924-2.046l-2.891-2.098c-1.876-1.467-3.665-3.041-5.488-4.575
					c-1.818-1.546-3.489-3.256-5.154-4.951c-3.289-3.448-6.324-7.183-8.955-11.166c-2.633-3.978-4.856-8.273-6.541-12.745
					l-0.03-0.159c-0.021,0.122,0.13,0.333,0.128,0.309c-0.004,0.019-0.16-0.199-0.138-0.329l0.03,0.158
					c-0.389-1.058-0.747-2.109-1.08-3.178c-0.342-1.068-0.601-2.155-0.906-3.232c-0.27-1.078-0.507-2.178-0.701-3.285
					c-0.206-1.112-0.357-2.199-0.494-3.337l0.005,0.043c-0.081-0.644-0.134-1.247-0.19-1.854l-0.001-0.017l0-0.023l0-0.05
					l0.002,0.041l-0.074-1.117l0.025,0.142c-0.06-0.309-0.03-0.308-0.044-0.426l-0.013-0.286l-0.026-0.573
					c-0.022-0.381-0.021-0.766-0.029-1.15c-0.021-0.767,0.018-1.538,0.026-2.307l0.156-2.301c0.041-0.768,0.108-1.534,0.23-2.294
					l0.312-2.285c0.129-0.757,0.302-1.508,0.451-2.262c0.295-1.513,0.658-2.996,1.106-4.481l-0.012,0.048l0.074-0.24l-0.016,0.048
					c0.388-1.333,0.836-2.635,1.312-3.935c0.492-1.298,1-2.573,1.577-3.83c0.557-1.26,1.171-2.512,1.84-3.715
					c0.65-1.22,1.343-2.411,2.12-3.579l-0.016,0.025c0.586-0.902,1.201-1.769,1.831-2.621c0.657-0.834,1.301-1.678,1.993-2.486
					l0.011-0.013l0.01-0.01c0.038-0.038,0.082-0.073,0.128-0.1l-0.12,0.095c0.836-0.988,1.754-1.882,2.629-2.824
					c0.936-0.88,1.903-1.729,2.852-2.594c0.984-0.823,1.994-1.628,3.053-2.352l1.592-1.081l1.641-1.018l0.059-0.036l0.075,0.001
					h0.01l-0.14,0.04c0.816-0.464,1.632-0.93,2.479-1.351c0.839-0.401,1.682-0.796,2.55-1.154c0.854-0.382,1.732-0.7,2.616-1.01
					c0.88-0.318,1.782-0.571,2.677-0.84l0.019-0.006l0.02,0l0.01,0l-0.038,0.005l1.57-0.401l0.014-0.004l0.014,0l0.01,0
					l-0.029,0.004l1.548-0.331l0.011-0.002l0.01,0l0.02,0l-0.019,0.002c1.01-0.194,2.031-0.344,3.051-0.462l0.005,0h0.003l0.02,0
					l-0.007,0l1.483-0.141l0.003,0l0.02,0l-0.003,0C206.038,119.052,207.008,119.025,207.979,119.031z"/>
			</g>
			<g>
				
					<linearGradient id="SVGID_00000169551232905442477020000001197760625564989359_" gradientUnits="userSpaceOnUse" x1="341.7767" y1="196.3466" x2="283.0042" y2="174.9552">
					<stop  offset="0" style="stop-color:#E27AE0"/>
					<stop  offset="1" style="stop-color:#E27AE0;stop-opacity:0"/>
				</linearGradient>
				<path style="fill:url(#SVGID_00000169551232905442477020000001197760625564989359_);" d="M289.319,158.62l3.486-1.513
					c1.184-0.461,2.377-0.882,3.586-1.272c2.416-0.787,4.908-1.351,7.427-1.701c2.518-0.344,5.111-0.408,7.647-0.135
					c0.636,0.076,1.266,0.2,1.9,0.298l0.95,0.159l0.939,0.227c1.246,0.338,2.455,0.738,3.653,1.259l-0.031-0.013
					c0.269,0.11,0.48,0.215,0.702,0.322l0.644,0.31l0.026,0.012l0.002,0.001c0.373,0.214,0.757,0.406,1.12,0.64l1.102,0.678
					c0.72,0.486,1.404,1.005,2.073,1.531l0.019,0.015l0.019,0.019c0.053,0.053,0.102,0.113,0.143,0.174l-0.114-0.143
					c0.663,0.565,1.306,1.147,1.919,1.758c0.311,0.301,0.587,0.638,0.883,0.955l0.872,0.966l0.105,0.292l0-0.019
					c-0.016-0.013,0.042-0.078-0.133-0.298c-0.22-0.174-0.284-0.117-0.297-0.133l-0.019-0.001l0.355,0.168l1.516,1.981l0.086,0.271
					l0-0.019c-0.017-0.014,0.042-0.079-0.135-0.303c-0.224-0.178-0.289-0.119-0.303-0.135l-0.019-0.001l0.384,0.201l1.274,1.955
					c0.419,0.656,0.801,1.335,1.172,2.002l0.039,0.087c0-0.014-0.006-0.027-0.016-0.035l0.024,0.041
					c0.419,0.769,0.78,1.567,1.145,2.364c0.361,0.798,0.753,1.584,1.066,2.402c0.66,1.622,1.171,3.289,1.75,4.935l-0.028-0.069
					c0.039,0.087,0.064,0.19,0.07,0.284l-0.023-0.147c0.22,0.739,0.47,1.471,0.664,2.217l0.306,1.115
					c0.1,0.381,0.204,0.722,0.3,1.152l-0.008-0.036l0.499,2.108c0.149,0.707,0.277,1.424,0.415,2.135l-0.011-0.047l0.081,0.443
					l0.031,0.188c0.011,0.059,0.025,0.184,0.032,0.273l-0.007-0.076c0.165,1.311,0.395,2.613,0.506,3.931
					c0.115,1.316,0.179,2.638,0.177,3.96c0.002,1.325-0.088,2.637-0.253,3.957c-0.117,1.335-0.324,2.594-0.628,3.955l0.01-0.036
					c-0.422,1.861-0.993,3.689-1.762,5.442c-0.736,1.751-1.695,3.416-2.755,4.991c-1.082,1.566-2.315,3.021-3.652,4.364
					c-1.33,1.352-2.805,2.549-4.324,3.67c2.949-2.36,5.598-5.1,7.627-8.265c0.987-1.597,1.888-3.239,2.585-4.987
					c0.714-1.723,1.239-3.528,1.615-5.36l0.01-0.036c0.234-1.204,0.437-2.533,0.517-3.811c0.134-1.282,0.198-2.587,0.169-3.883
					c-0.01-1.296-0.08-2.593-0.202-3.885c-0.117-1.292-0.353-2.571-0.523-3.857l-0.007-0.077l-0.115-0.656l-0.011-0.048
					c-0.141-0.695-0.269-1.389-0.42-2.083l-0.506-2.073l-0.008-0.037c-0.075-0.318-0.191-0.711-0.289-1.07l-0.31-1.101
					c-0.197-0.738-0.449-1.456-0.671-2.184l-0.023-0.147c-0.007,0.048,0.005,0.104,0.03,0.145l-0.028-0.069
					c-0.583-1.621-1.1-3.27-1.759-4.857c-0.311-0.8-0.683-1.574-1.033-2.357c-0.352-0.782-0.699-1.567-1.106-2.324l0.024,0.04
					c-0.037-0.062-0.069-0.128-0.096-0.195l0.039,0.087c-0.371-0.679-0.739-1.343-1.144-1.985l-1.231-1.917l0.384,0.201
					l-0.028-0.001c-0.016-0.017-0.085,0.042-0.311-0.138c-0.18-0.226-0.121-0.295-0.138-0.311l-0.001-0.028l0.086,0.271
					l-1.463-1.939l0.355,0.168l-0.028-0.001c-0.016-0.017-0.084,0.041-0.306-0.135c-0.177-0.222-0.119-0.29-0.135-0.306
					l-0.001-0.028l0.105,0.292l-0.837-0.939c-0.284-0.309-0.547-0.636-0.847-0.93c-0.592-0.599-1.21-1.165-1.842-1.712l-0.115-0.144
					c0.001,0.022,0.01,0.042,0.023,0.055l0.038,0.034c-0.66-0.526-1.323-1.035-2.005-1.502l-1.059-0.661
					c-0.348-0.228-0.722-0.418-1.082-0.628l0.028,0.014l-0.671-0.328c-0.217-0.107-0.441-0.22-0.622-0.299l-0.032-0.013
					c-1.114-0.511-2.306-0.935-3.495-1.283l-0.902-0.238l-0.92-0.172c-0.615-0.108-1.226-0.242-1.844-0.329
					c-2.493-0.318-5-0.307-7.504-0.019c-2.501,0.298-4.987,0.749-7.41,1.458c-1.213,0.347-2.421,0.729-3.611,1.148L289.319,158.62z"
					/>
			</g>
			<g>
				
					<linearGradient id="SVGID_00000161620121171049847130000017538044980195603613_" gradientUnits="userSpaceOnUse" x1="266.3939" y1="306.4462" x2="290.1528" y2="265.2945">
					<stop  offset="0" style="stop-color:#E29AE0"/>
					<stop  offset="1" style="stop-color:#E29AE0;stop-opacity:0"/>
				</linearGradient>
				<path style="fill:url(#SVGID_00000161620121171049847130000017538044980195603613_);" d="M249.889,293.07
					c0.629,0.812,1.299,1.598,1.975,2.357l0.016,0.022l0.024,0.025l0.017,0.024l0,0l0.034,0.035l0.001,0.001l0.005,0.005
					c0.371,0.396,0.736,0.794,1.126,1.171c0.191,0.192,0.384,0.382,0.583,0.565c0.194,0.18,0.4,0.384,0.584,0.543l0.011,0.01
					c0.738,0.64,1.505,1.271,2.293,1.839c0.799,0.563,1.607,1.133,2.471,1.587l1.277,0.715c0.446,0.199,0.872,0.438,1.333,0.605
					c0.909,0.353,1.809,0.754,2.732,1.015l0.156,0.092c-0.052-0.06-0.157-0.103-0.237-0.097l0.13,0.025l0.328,0.091l0.027,0.008
					c1.086,0.315,2.236,0.553,3.36,0.745c1.142,0.177,2.28,0.31,3.436,0.362c2.308,0.118,4.609-0.025,6.902-0.331l0.065-0.005
					c0.03-0.003,0.06-0.009,0.09-0.01l-0.068,0.005c3.747-0.519,7.326-1.557,10.639-3.272c3.263-1.75,6.051-4.393,7.868-7.631
					c1.883-3.213,2.875-6.904,3.317-10.63c0.497-3.733,0.435-7.533,0.224-11.311v0l0-0.01l0,0.01v0
					c0.453,3.757,0.671,7.571,0.311,11.368c-0.346,3.785-1.234,7.602-3.113,10.989c-1.862,3.395-4.758,6.193-8.15,8.052
					c-1.709,0.878-3.484,1.671-5.339,2.205c-0.932,0.249-1.855,0.491-2.803,0.688c-0.936,0.185-1.874,0.338-2.819,0.473
					l-0.023,0.003l-0.046,0.002c-0.03,0.001-0.06,0.007-0.09,0.01l0.065-0.005c-2.338,0.29-4.722,0.418-7.08,0.274
					c-1.178-0.065-2.362-0.211-3.526-0.407c-1.173-0.235-2.307-0.502-3.456-0.87l0.027,0.008l-0.411-0.129l0.13,0.024
					c-0.092,0-0.211-0.05-0.276-0.117l0.156,0.092c-0.973-0.305-1.871-0.737-2.793-1.125c-0.465-0.184-0.898-0.441-1.348-0.658
					l-1.289-0.769c-0.871-0.496-1.675-1.078-2.461-1.693c-0.788-0.625-1.519-1.286-2.243-1.974l0.011,0.01
					c-0.219-0.206-0.389-0.395-0.585-0.594c-0.192-0.194-0.378-0.394-0.561-0.596c-0.375-0.396-0.726-0.816-1.08-1.23l0.005,0.005
					l-0.066-0.085l0.017,0.024l-0.056-0.074l0.015,0.022C251.078,294.746,250.472,293.919,249.889,293.07z"/>
			</g>
		</g>
		
			<radialGradient id="SVGID_00000064326938027834835160000007476446273559829439_" cx="178.4996" cy="269.2505" r="83.7802" gradientUnits="userSpaceOnUse">
			<stop  offset="0.0251" style="stop-color:#DE5EBC"/>
			<stop  offset="0.5071" style="stop-color:#7B62DA"/>
			<stop  offset="1" style="stop-color:#3C5FFA"/>
		</radialGradient>
		<path style="fill:url(#SVGID_00000064326938027834835160000007476446273559829439_);" d="M220.999,273.75
			c-13.012-6.506-28.25,11-22.25,24.75s20.5,16,26.75,11S238.999,282.75,220.999,273.75z"/>
		<g>
			
				<linearGradient id="SVGID_00000096044475671763833570000003053784315726451874_" gradientUnits="userSpaceOnUse" x1="205.978" y1="308.6205" x2="225.1124" y2="275.4788">
				<stop  offset="0" style="stop-color:#E27AE0"/>
				<stop  offset="1" style="stop-color:#E27AE0;stop-opacity:0"/>
			</linearGradient>
			<path style="fill:url(#SVGID_00000096044475671763833570000003053784315726451874_);" d="M220.999,273.75
				c-2.18-1.082-4.659-1.552-7.075-1.304c-2.42,0.235-4.744,1.133-6.787,2.429c-4.077,2.637-7.099,6.777-8.545,11.354
				c-0.722,2.292-1.011,4.717-0.79,7.091c0.203,2.391,1.022,4.645,2.184,6.747c2.226,4.23,5.792,7.761,10.144,9.693
				c2.158,0.982,4.497,1.588,6.865,1.695c2.358,0.105,4.771-0.289,6.845-1.378c2.099-1.048,3.573-3.03,4.786-5.081
				c1.191-2.084,2.081-4.345,2.7-6.676c1.191-4.649,1.299-9.726-0.493-14.263C229.066,279.511,225.351,275.9,220.999,273.75z
				 M220.999,273.75c4.371,2.105,8.14,5.688,9.967,10.253c1.884,4.537,1.938,9.675,0.837,14.435
				c-0.57,2.387-1.416,4.714-2.588,6.888c-0.592,1.083-1.268,2.127-2.071,3.087c-0.795,0.96-1.779,1.827-2.901,2.413
				c-2.238,1.204-4.795,1.637-7.284,1.553c-2.499-0.088-4.962-0.7-7.24-1.708c-4.555-2.069-8.232-5.809-10.488-10.204
				c-1.167-2.165-1.964-4.611-2.112-7.091c-0.167-2.479,0.199-4.973,0.998-7.302c1.598-4.657,4.788-8.741,8.943-11.322
				c2.072-1.287,4.421-2.167,6.857-2.379C216.35,272.149,218.83,272.647,220.999,273.75z"/>
		</g>
	</g>
</g>
<g id="DESIGNED_BY_FREEPIK">
	<g>
		<g id="XMLID_319_">
			<g id="XMLID_338_">
				<path id="XMLID_346_" style="fill:#222221;" d="M260.104,465.465c-0.433,0.443-0.804,0.932-1.108,1.453l-0.465-0.241
					c-0.067-0.297-0.35-0.502-0.659-0.466c-0.331,0.039-0.567,0.339-0.529,0.67c0.039,0.331,0.339,0.567,0.67,0.528
					c0.065-0.007,0.127-0.025,0.184-0.052l0.451,0.234c-0.251,0.554-0.433,1.139-0.539,1.743l0.747,0.132
					c0.23-1.306,0.85-2.507,1.792-3.473L260.104,465.465z"/>
				<path id="XMLID_345_" style="fill:#222221;" d="M265.591,463.164c-0.171,0-0.341,0.006-0.509,0.017l-0.074-0.626
					c0.188-0.149,0.296-0.389,0.266-0.645c-0.046-0.393-0.402-0.674-0.795-0.628c-0.394,0.046-0.675,0.402-0.628,0.796
					c0.03,0.254,0.189,0.461,0.404,0.563l0.073,0.624c-0.714,0.116-1.402,0.332-2.06,0.646l0.327,0.685
					c0.935-0.447,1.941-0.674,2.995-0.674c0.497,0,0.993,0.053,1.476,0.158l0.16-0.741
					C266.692,463.222,266.142,463.164,265.591,463.164z"/>
				<path id="XMLID_344_" style="fill:#222221;" d="M272.194,465.711c0.331-0.04,0.566-0.341,0.525-0.672
					c-0.04-0.331-0.341-0.566-0.672-0.525c-0.31,0.038-0.535,0.304-0.53,0.608l-0.416,0.363c-0.418-0.43-0.89-0.813-1.407-1.14
					l-0.404,0.642c1.135,0.715,2.021,1.727,2.564,2.925l0.69-0.313c-0.251-0.554-0.567-1.071-0.942-1.545l0.402-0.351
					C272.065,465.715,272.128,465.719,272.194,465.711z"/>
				<path id="XMLID_343_" style="fill:#222221;" d="M265.044,473.372c-0.386,0.023-0.775,0.035-1.157,0.035
					c-0.88,0-1.733-0.061-2.479-0.18c-0.391-0.062-0.846-0.154-1.271-0.292c1.047,1.861,3.069,3.125,5.389,3.125
					c2.855,0,5.263-1.916,5.949-4.503c-0.682,0.449-1.505,0.825-2.458,1.122C267.838,473.047,266.463,473.287,265.044,473.372z"/>
				<path id="XMLID_339_" style="fill:#222221;" d="M265.591,464.68c-3.351,0-6.079,2.666-6.079,5.943
					c0,0.425,0.046,0.849,0.137,1.261c0.674,0.483,2.706,0.891,5.348,0.731c2.88-0.174,5.297-0.958,6.672-2.159
					c-0.005-0.194-0.021-0.39-0.045-0.581C271.244,466.914,268.65,464.68,265.591,464.68z M263.432,471.195
					c-1.02,0-1.85-0.83-1.85-1.85c0-1.021,0.83-1.851,1.85-1.851c1.02,0,1.85,0.83,1.85,1.851
					C265.282,470.365,264.452,471.195,263.432,471.195z M268.169,470.287c-0.75,0-1.36-0.61-1.36-1.36s0.61-1.36,1.36-1.36
					s1.36,0.61,1.36,1.36S268.919,470.287,268.169,470.287z"/>
			</g>
			<path id="XMLID_336_" style="fill:#222221;" d="M281.595,466.547c-0.295-0.116-0.806-0.31-1.383-0.238
				c-0.551,0.069-0.844,0.341-0.844,1.007v0.866h2.229v1.717h-2.229v5.455h-1.932v-5.455h-1.339v-1.717h1.339v-0.889
				c0-1.68,0.896-2.782,2.568-2.782c0.643,0,1.157,0.121,1.59,0.308V466.547z"/>
			<path id="XMLID_334_" style="fill:#222221;" d="M286.297,469.878c-0.177-0.029-0.357-0.046-0.525-0.046
				c-0.896,0-1.51,0.548-1.51,1.613v3.908h-1.933v-7.172h1.873v0.784c0.451-0.673,1.14-0.977,2.021-0.977
				c0.414,0,0.848,0.128,1.095,0.337L286.297,469.878z"/>
			<path id="XMLID_331_" style="fill:#222221;" d="M293.965,471.757c0,0.222-0.016,0.488-0.037,0.651h-5.085
				c0.207,1.036,0.933,1.487,1.843,1.487c0.622,0,1.295-0.252,1.813-0.689l1.133,1.243c-0.814,0.748-1.851,1.089-3.057,1.089
				c-2.198,0-3.724-1.496-3.724-3.753c0-2.258,1.48-3.797,3.627-3.797C292.543,467.99,293.958,469.522,293.965,471.757z
				 M288.851,471.091h3.175c-0.178-0.918-0.732-1.437-1.562-1.437C289.554,469.655,289.021,470.203,288.851,471.091z"/>
			<path id="XMLID_328_" style="fill:#222221;" d="M301.619,471.757c0,0.222-0.016,0.488-0.037,0.651h-5.085
				c0.207,1.036,0.933,1.487,1.843,1.487c0.622,0,1.296-0.252,1.814-0.689l1.133,1.243c-0.815,0.748-1.851,1.089-3.058,1.089
				c-2.198,0-3.723-1.496-3.723-3.753c0-2.258,1.48-3.797,3.627-3.797C300.197,467.99,301.611,469.522,301.619,471.757z
				 M296.504,471.091h3.175c-0.178-0.918-0.733-1.437-1.561-1.437C297.208,469.655,296.674,470.203,296.504,471.091z"/>
			<path id="XMLID_325_" style="fill:#222221;" d="M309.964,471.764c0,2.154-1.495,3.775-3.472,3.775
				c-0.962,0-1.644-0.378-2.109-0.933v3.708h-1.925v-10.133h1.888v0.792c0.467-0.585,1.154-0.984,2.139-0.984
				C308.469,467.99,309.964,469.611,309.964,471.764z M304.287,471.764c0,1.133,0.748,1.977,1.844,1.977
				c1.14,0,1.85-0.881,1.85-1.977c0-1.095-0.71-1.976-1.85-1.976C305.035,469.789,304.287,470.632,304.287,471.764z"/>
			<path id="XMLID_322_" style="fill:#222221;" d="M313.068,465.836c0,0.696-0.541,1.229-1.236,1.229
				c-0.696,0-1.229-0.533-1.229-1.229c0-0.695,0.532-1.243,1.229-1.243C312.527,464.592,313.068,465.14,313.068,465.836z
				 M312.808,475.354h-1.932v-7.172h1.932V475.354z"/>
			<path id="XMLID_320_" style="fill:#222221;" d="M316.032,470.736l2.702-2.554h2.368l-3.478,3.375l3.501,3.797h-2.376
				l-2.717-2.901v2.901H314.1v-10.658h1.932V470.736z"/>
		</g>
		<g>
			<path style="fill:#222221;" d="M184.412,475.29v-1.055c-0.527,0.718-1.391,1.23-2.387,1.23c-1.846,0-3.149-1.406-3.149-3.706
				c0-2.256,1.289-3.721,3.149-3.721c0.952,0,1.816,0.469,2.387,1.245v-3.765h1.099v9.771H184.412z M184.412,473.371v-3.208
				c-0.395-0.615-1.245-1.143-2.124-1.143c-1.42,0-2.27,1.172-2.27,2.739c0,1.567,0.85,2.725,2.27,2.725
				C183.167,474.484,184.017,473.986,184.412,473.371z"/>
			<path style="fill:#222221;" d="M186.932,471.745c0-2.051,1.465-3.706,3.486-3.706c2.139,0,3.398,1.67,3.398,3.794v0.278h-5.727
				c0.088,1.333,1.025,2.446,2.549,2.446c0.806,0,1.626-0.322,2.182-0.894l0.527,0.718c-0.703,0.703-1.655,1.084-2.812,1.084
				C188.44,475.465,186.932,473.957,186.932,471.745z M190.403,468.947c-1.509,0-2.256,1.274-2.314,2.358h4.644
				C192.718,470.25,192.015,468.947,190.403,468.947z"/>
			<path style="fill:#222221;" d="M194.607,474.352l0.571-0.791c0.469,0.542,1.362,1.011,2.329,1.011c1.084,0,1.67-0.513,1.67-1.216
				c0-1.714-4.38-0.659-4.38-3.281c0-1.099,0.952-2.036,2.636-2.036c1.202,0,2.051,0.454,2.623,1.025l-0.513,0.762
				c-0.424-0.513-1.201-0.894-2.109-0.894c-0.966,0-1.567,0.483-1.567,1.113c0,1.553,4.379,0.527,4.379,3.281
				c0,1.187-0.952,2.139-2.783,2.139C196.306,475.465,195.325,475.114,194.607,474.352z"/>
			<path style="fill:#222221;" d="M201.477,466.471c0-0.41,0.337-0.747,0.732-0.747c0.41,0,0.747,0.337,0.747,0.747
				c0,0.41-0.337,0.732-0.747,0.732C201.814,467.204,201.477,466.881,201.477,466.471z M201.667,475.29v-7.075h1.099v7.075H201.667z
				"/>
			<path style="fill:#222221;" d="M204.582,477.106l0.556-0.82c0.586,0.703,1.289,0.967,2.3,0.967c1.172,0,2.271-0.571,2.271-2.124
				v-1.011c-0.513,0.718-1.377,1.26-2.373,1.26c-1.846,0-3.149-1.377-3.149-3.662c0-2.271,1.289-3.677,3.149-3.677
				c0.952,0,1.802,0.469,2.373,1.245v-1.069h1.099v6.87c0,2.344-1.641,3.076-3.369,3.076
				C206.237,478.161,205.416,477.925,204.582,477.106z M209.708,473.253v-3.091c-0.381-0.615-1.23-1.143-2.109-1.143
				c-1.421,0-2.27,1.128-2.27,2.695c0,1.553,0.849,2.695,2.27,2.695C208.478,474.411,209.328,473.869,209.708,473.253z"/>
			<path style="fill:#222221;" d="M217.413,475.29v-4.629c0-1.245-0.63-1.641-1.582-1.641c-0.864,0-1.685,0.527-2.094,1.099v5.171
				h-1.099v-7.075h1.099v1.025c0.497-0.586,1.464-1.201,2.519-1.201c1.479,0,2.256,0.747,2.256,2.285v4.966H217.413z"/>
			<path style="fill:#222221;" d="M219.932,471.745c0-2.051,1.465-3.706,3.486-3.706c2.139,0,3.398,1.67,3.398,3.794v0.278h-5.727
				c0.088,1.333,1.025,2.446,2.548,2.446c0.806,0,1.626-0.322,2.183-0.894l0.527,0.718c-0.703,0.703-1.655,1.084-2.813,1.084
				C221.441,475.465,219.932,473.957,219.932,471.745z M223.404,468.947c-1.509,0-2.256,1.274-2.314,2.358h4.643
				C225.718,470.25,225.015,468.947,223.404,468.947z"/>
			<path style="fill:#222221;" d="M233.35,475.29v-1.055c-0.527,0.718-1.392,1.23-2.388,1.23c-1.845,0-3.149-1.406-3.149-3.706
				c0-2.256,1.289-3.721,3.149-3.721c0.952,0,1.817,0.469,2.388,1.245v-3.765h1.098v9.771H233.35z M233.35,473.371v-3.208
				c-0.396-0.615-1.245-1.143-2.124-1.143c-1.421,0-2.27,1.172-2.27,2.739c0,1.567,0.85,2.725,2.27,2.725
				C232.105,474.484,232.954,473.986,233.35,473.371z"/>
			<path style="fill:#222221;" d="M239.692,475.29v-9.771h1.099v3.765c0.571-0.776,1.421-1.245,2.388-1.245
				c1.845,0,3.149,1.465,3.149,3.721c0,2.3-1.304,3.706-3.149,3.706c-0.996,0-1.86-0.513-2.388-1.23v1.055H239.692z M242.9,474.484
				c1.436,0,2.285-1.157,2.285-2.725c0-1.567-0.85-2.739-2.285-2.739c-0.864,0-1.729,0.527-2.109,1.143v3.208
				C241.171,473.986,242.036,474.484,242.9,474.484z"/>
			<path style="fill:#222221;" d="M247.528,477.062c0.161,0.073,0.425,0.117,0.601,0.117c0.483,0,0.806-0.161,1.055-0.747
				l0.469-1.069l-2.959-7.148h1.187l2.358,5.801l2.344-5.801h1.2l-3.544,8.511c-0.425,1.024-1.143,1.421-2.08,1.436
				c-0.234,0-0.6-0.044-0.806-0.104L247.528,477.062z"/>
		</g>
	</g>
</g>
</svg>
