<?xml version="1.0" encoding="utf-8"?>
<!-- Generator: Adobe Illustrator 27.5.0, SVG Export Plug-In . SVG Version: 6.00 Build 0)  -->
<svg version="1.1" xmlns="http://www.w3.org/2000/svg" xmlns:xlink="http://www.w3.org/1999/xlink" x="0px" y="0px"
	 viewBox="0 0 800 800" style="enable-background:new 0 0 800 800;" xml:space="preserve">
<g id="Layer_1">
	<g>
		<g>
			<g>
				<polygon style="fill:#FFF100;" points="434.659,248.102 469.317,248.102 451.989,265.432 				"/>
				<polygon style="fill:#B1D78A;" points="451.989,265.432 486.646,265.431 469.317,282.761 				"/>
				<polygon style="fill:#8CCB8B;" points="486.646,300.09 469.317,282.761 486.646,265.431 				"/>
				<polygon style="fill:#B2DAAE;" points="451.987,265.431 469.317,248.102 486.646,265.431 				"/>
				<polygon style="fill:#C45DA3;" points="313.355,369.405 313.355,404.065 330.686,386.734 				"/>
				<polygon style="fill:#91278F;" points="330.686,386.734 330.685,421.394 348.015,404.063 				"/>
				<polygon style="fill:#6F2B90;" points="365.344,421.394 348.015,404.063 330.685,421.394 				"/>
				<polygon style="fill:#C1499B;" points="330.686,386.734 313.355,404.065 330.685,421.394 				"/>
				<polygon style="fill:#FAAC2E;" points="434.659,282.761 417.328,265.432 434.659,248.102 				"/>
				<polygon style="fill:#FFC909;" points="434.659,282.761 434.659,248.102 451.989,265.432 				"/>
				<polygon style="fill:#1DB24B;" points="469.315,317.42 451.987,300.091 469.317,282.761 				"/>
				<polygon style="fill:#63BE68;" points="469.315,317.42 469.317,282.761 486.646,300.09 				"/>
				<polygon style="fill:#F27925;" points="399.999,282.762 417.328,265.432 434.659,282.761 				"/>
				<polygon style="fill:#F16E3D;" points="399.999,282.762 434.659,282.761 417.328,300.091 				"/>
				<polygon style="fill:#3A8732;" points="434.656,317.42 451.987,300.09 469.317,317.42 				"/>
				<polygon style="fill:#077D3B;" points="434.656,317.42 469.317,317.42 451.987,334.749 				"/>
				<polygon style="fill:#EE2038;" points="400,317.42 382.67,300.091 399.999,282.762 				"/>
				<polygon style="fill:#F04C3B;" points="400,317.42 399.999,282.762 417.328,300.091 				"/>
				<polygon style="fill:#00A4E7;" points="434.656,352.079 417.328,334.748 434.656,317.42 				"/>
				<polygon style="fill:#1C75BC;" points="434.656,352.079 434.656,317.42 451.987,334.749 				"/>
				<polygon style="fill:#C1193E;" points="365.342,317.42 382.671,300.09 400,317.42 				"/>
				<polygon style="fill:#D81E47;" points="365.342,317.42 400,317.42 382.671,334.749 				"/>
				<polygon style="fill:#00B9F2;" points="399.999,352.078 417.328,334.748 434.659,352.078 				"/>
				<polygon style="fill:#0095D1;" points="399.999,352.078 434.659,352.078 417.328,369.407 				"/>
				<polygon style="fill:#DE5877;" points="365.343,352.078 348.013,334.748 365.342,317.42 				"/>
				<polygon style="fill:#D81A60;" points="365.343,352.078 365.342,317.42 382.671,334.748 				"/>
				<polygon style="fill:#00B9F2;" points="400,386.735 382.671,369.406 400,352.076 				"/>
				<polygon style="fill:#00A4E7;" points="400,386.735 400,352.076 417.328,369.407 				"/>
				<polygon style="fill:#ED2B82;" points="330.685,352.078 348.015,334.747 365.343,352.076 				"/>
				<polygon style="fill:#F59CB8;" points="330.685,352.078 365.343,352.076 348.013,369.406 				"/>
				<polygon style="fill:#0095D1;" points="365.343,386.735 382.672,369.406 400,386.734 				"/>
				<polygon style="fill:#1C75BC;" points="365.343,386.735 400,386.734 382.671,404.063 				"/>
				<polygon style="fill:#CA6FAC;" points="330.686,386.734 313.355,369.405 330.685,352.076 				"/>
				<polygon style="fill:#F385A9;" points="330.686,386.734 330.685,352.076 348.015,369.406 				"/>
				<polygon style="fill:#542E91;" points="365.344,421.394 348.015,404.063 365.343,386.734 				"/>
				<polygon style="fill:#2963A7;" points="365.344,421.394 365.343,386.734 382.672,404.065 				"/>
			</g>
			<polygon style="fill:#FFF100;" points="434.659,421.394 469.317,421.392 451.989,404.063 			"/>
			<polygon style="fill:#B1D78A;" points="451.989,404.063 486.646,404.063 469.317,386.734 			"/>
			<polygon style="fill:#8CCB8B;" points="486.646,369.405 469.317,386.734 486.646,404.063 			"/>
			<polygon style="fill:#B2DAAE;" points="451.987,404.063 469.317,421.392 486.646,404.063 			"/>
			<polygon style="fill:#C45DA3;" points="313.355,300.09 313.355,265.43 330.686,282.76 			"/>
			<polygon style="fill:#91278F;" points="330.686,282.76 330.685,248.102 348.015,265.431 			"/>
			<polygon style="fill:#6F2B90;" points="365.344,248.102 348.015,265.431 330.685,248.102 			"/>
			<polygon style="fill:#C1499B;" points="330.686,282.761 313.355,265.43 330.685,248.102 			"/>
			<polygon style="fill:#FAAC2E;" points="434.659,386.734 417.328,404.063 434.659,421.394 			"/>
			<polygon style="fill:#FFC909;" points="434.659,386.734 434.659,421.394 451.989,404.063 			"/>
			<polygon style="fill:#1DB24B;" points="469.315,352.074 451.987,369.404 469.317,386.734 			"/>
			<polygon style="fill:#63BE68;" points="469.315,352.074 469.317,386.734 486.646,369.405 			"/>
			<polygon style="fill:#F27925;" points="399.999,386.733 417.328,404.063 434.659,386.734 			"/>
			<polygon style="fill:#F16E3D;" points="399.999,386.733 434.659,386.734 417.328,369.403 			"/>
			<polygon style="fill:#3A8732;" points="434.656,352.074 451.987,369.405 469.317,352.074 			"/>
			<polygon style="fill:#077D3B;" points="434.656,352.074 469.317,352.074 451.987,334.745 			"/>
			<polygon style="fill:#C1193E;" points="365.342,352.074 382.671,369.405 400,352.074 			"/>
			<polygon style="fill:#D81E47;" points="365.342,352.074 400,352.074 382.671,334.746 			"/>
			<polygon style="fill:#00B9F2;" points="399.999,317.416 417.328,334.746 434.659,317.417 			"/>
			<polygon style="fill:#0095D1;" points="399.999,317.416 434.659,317.417 417.328,300.087 			"/>
			<polygon style="fill:#ED2B82;" points="330.685,317.417 348.015,334.747 365.343,317.418 			"/>
			<polygon style="fill:#F59CB8;" points="330.685,317.417 365.343,317.418 348.013,300.088 			"/>
			<polygon style="fill:#0095D1;" points="365.343,282.76 382.672,300.089 400,282.761 			"/>
			<polygon style="fill:#1C75BC;" points="365.343,282.76 400,282.761 382.671,265.431 			"/>
			<polygon style="fill:#CA6FAC;" points="330.686,282.76 313.355,300.09 330.685,317.418 			"/>
			<polygon style="fill:#F385A9;" points="330.686,282.76 330.685,317.418 348.015,300.089 			"/>
			<polygon style="fill:#542E91;" points="365.344,248.102 348.015,265.432 365.343,282.761 			"/>
			<polygon style="fill:#2963A7;" points="365.344,248.102 365.343,282.761 382.672,265.43 			"/>
		</g>
		<g>
			<text transform="matrix(1 0 0 1 213.3809 502.1523)" style="font-family:'Exo-Bold'; font-size:70.9178px;">X-extremes</text>
			
				<text transform="matrix(1 0 0 1 291.4102 543.3936)" style="font-family:'MyriadPro-Regular'; font-size:34.0186px; letter-spacing:4;">its your tag line</text>
		</g>
	</g>
</g>
<g id="Layer_2" style="display:none;">
</g>
</svg>
